<mxfile host="app.diagrams.net" modified="2024-02-02T10:29:13.367Z" agent="Mozilla/5.0 (X11; Linux x86_64; rv:122.0) Gecko/20100101 Firefox/122.0" etag="96SyOJDgrgwQsA4REEum" version="23.0.2" type="device">
  <diagram name="Page-1" id="kNnqnw0LhIFkPlrHKud5">
    <mxGraphModel dx="2537" dy="929" grid="1" gridSize="10" guides="1" tooltips="1" connect="1" arrows="1" fold="1" page="1" pageScale="1" pageWidth="850" pageHeight="1100" math="0" shadow="0">
      <root>
        <mxCell id="0" />
        <mxCell id="1" parent="0" />
        <mxCell id="WROsCdbGqWdpVilWkqdj-1" value="Patient" style="whiteSpace=wrap;html=1;align=center;" vertex="1" parent="1">
          <mxGeometry x="30" y="305" width="100" height="40" as="geometry" />
        </mxCell>
        <mxCell id="WROsCdbGqWdpVilWkqdj-2" value="&lt;div&gt;ssn&lt;/div&gt;" style="ellipse;whiteSpace=wrap;html=1;align=center;fontStyle=4;" vertex="1" parent="1">
          <mxGeometry x="-30" y="245" width="100" height="40" as="geometry" />
        </mxCell>
        <mxCell id="WROsCdbGqWdpVilWkqdj-3" value="name" style="ellipse;whiteSpace=wrap;html=1;align=center;" vertex="1" parent="1">
          <mxGeometry x="90" y="245" width="100" height="40" as="geometry" />
        </mxCell>
        <mxCell id="WROsCdbGqWdpVilWkqdj-4" value="address" style="ellipse;whiteSpace=wrap;html=1;align=center;" vertex="1" parent="1">
          <mxGeometry x="-100" y="305" width="100" height="40" as="geometry" />
        </mxCell>
        <mxCell id="WROsCdbGqWdpVilWkqdj-5" value="age" style="ellipse;whiteSpace=wrap;html=1;align=center;" vertex="1" parent="1">
          <mxGeometry x="30" y="365" width="100" height="40" as="geometry" />
        </mxCell>
        <mxCell id="WROsCdbGqWdpVilWkqdj-6" value="" style="endArrow=none;html=1;rounded=0;exitX=1;exitY=0.5;exitDx=0;exitDy=0;entryX=0;entryY=0.5;entryDx=0;entryDy=0;" edge="1" parent="1" source="WROsCdbGqWdpVilWkqdj-4" target="WROsCdbGqWdpVilWkqdj-1">
          <mxGeometry relative="1" as="geometry">
            <mxPoint x="10" y="475" as="sourcePoint" />
            <mxPoint x="170" y="475" as="targetPoint" />
          </mxGeometry>
        </mxCell>
        <mxCell id="WROsCdbGqWdpVilWkqdj-7" value="" style="endArrow=none;html=1;rounded=0;exitX=0.5;exitY=0;exitDx=0;exitDy=0;" edge="1" parent="1" source="WROsCdbGqWdpVilWkqdj-5">
          <mxGeometry relative="1" as="geometry">
            <mxPoint x="30" y="375" as="sourcePoint" />
            <mxPoint x="80" y="345" as="targetPoint" />
          </mxGeometry>
        </mxCell>
        <mxCell id="WROsCdbGqWdpVilWkqdj-8" value="" style="endArrow=none;html=1;rounded=0;exitX=0.5;exitY=1;exitDx=0;exitDy=0;entryX=0.5;entryY=0;entryDx=0;entryDy=0;" edge="1" parent="1" source="WROsCdbGqWdpVilWkqdj-2" target="WROsCdbGqWdpVilWkqdj-1">
          <mxGeometry relative="1" as="geometry">
            <mxPoint x="30" y="375" as="sourcePoint" />
            <mxPoint x="90" y="355" as="targetPoint" />
          </mxGeometry>
        </mxCell>
        <mxCell id="WROsCdbGqWdpVilWkqdj-9" value="" style="endArrow=none;html=1;rounded=0;exitX=0.5;exitY=0;exitDx=0;exitDy=0;entryX=0.5;entryY=1;entryDx=0;entryDy=0;" edge="1" parent="1" source="WROsCdbGqWdpVilWkqdj-1" target="WROsCdbGqWdpVilWkqdj-3">
          <mxGeometry relative="1" as="geometry">
            <mxPoint x="30" y="295" as="sourcePoint" />
            <mxPoint x="90" y="315" as="targetPoint" />
          </mxGeometry>
        </mxCell>
        <mxCell id="WROsCdbGqWdpVilWkqdj-10" value="Doctor" style="whiteSpace=wrap;html=1;align=center;" vertex="1" parent="1">
          <mxGeometry x="430" y="305" width="100" height="40" as="geometry" />
        </mxCell>
        <mxCell id="WROsCdbGqWdpVilWkqdj-11" value="name" style="ellipse;whiteSpace=wrap;html=1;align=center;fontStyle=4;" vertex="1" parent="1">
          <mxGeometry x="370" y="245" width="100" height="40" as="geometry" />
        </mxCell>
        <mxCell id="WROsCdbGqWdpVilWkqdj-12" value="specialty" style="ellipse;whiteSpace=wrap;html=1;align=center;" vertex="1" parent="1">
          <mxGeometry x="490" y="245" width="100" height="40" as="geometry" />
        </mxCell>
        <mxCell id="WROsCdbGqWdpVilWkqdj-13" value="experience" style="ellipse;whiteSpace=wrap;html=1;align=center;" vertex="1" parent="1">
          <mxGeometry x="430" y="365" width="100" height="40" as="geometry" />
        </mxCell>
        <mxCell id="WROsCdbGqWdpVilWkqdj-15" value="" style="endArrow=none;html=1;rounded=0;exitX=0.5;exitY=0;exitDx=0;exitDy=0;entryX=0.5;entryY=1;entryDx=0;entryDy=0;" edge="1" parent="1" source="WROsCdbGqWdpVilWkqdj-13" target="WROsCdbGqWdpVilWkqdj-10">
          <mxGeometry relative="1" as="geometry">
            <mxPoint x="410" y="475" as="sourcePoint" />
            <mxPoint x="570" y="475" as="targetPoint" />
          </mxGeometry>
        </mxCell>
        <mxCell id="WROsCdbGqWdpVilWkqdj-17" value="" style="endArrow=none;html=1;rounded=0;exitX=0.5;exitY=1;exitDx=0;exitDy=0;entryX=0.5;entryY=0;entryDx=0;entryDy=0;" edge="1" parent="1" source="WROsCdbGqWdpVilWkqdj-11" target="WROsCdbGqWdpVilWkqdj-10">
          <mxGeometry relative="1" as="geometry">
            <mxPoint x="430" y="375" as="sourcePoint" />
            <mxPoint x="490" y="355" as="targetPoint" />
          </mxGeometry>
        </mxCell>
        <mxCell id="WROsCdbGqWdpVilWkqdj-18" value="" style="endArrow=none;html=1;rounded=0;exitX=0.5;exitY=0;exitDx=0;exitDy=0;entryX=0.5;entryY=1;entryDx=0;entryDy=0;" edge="1" parent="1" source="WROsCdbGqWdpVilWkqdj-10" target="WROsCdbGqWdpVilWkqdj-12">
          <mxGeometry relative="1" as="geometry">
            <mxPoint x="430" y="295" as="sourcePoint" />
            <mxPoint x="490" y="315" as="targetPoint" />
          </mxGeometry>
        </mxCell>
        <mxCell id="WROsCdbGqWdpVilWkqdj-19" value="&lt;div&gt;Pharmaceutical&lt;/div&gt;&lt;div&gt;_Company&lt;/div&gt;" style="whiteSpace=wrap;html=1;align=center;" vertex="1" parent="1">
          <mxGeometry x="-530" y="655" width="100" height="40" as="geometry" />
        </mxCell>
        <mxCell id="WROsCdbGqWdpVilWkqdj-20" value="name" style="ellipse;whiteSpace=wrap;html=1;align=center;fontStyle=4;" vertex="1" parent="1">
          <mxGeometry x="-590" y="595" width="100" height="40" as="geometry" />
        </mxCell>
        <mxCell id="WROsCdbGqWdpVilWkqdj-21" value="" style="endArrow=none;html=1;rounded=0;exitX=0.5;exitY=1;exitDx=0;exitDy=0;entryX=0.5;entryY=0;entryDx=0;entryDy=0;" edge="1" parent="1" source="WROsCdbGqWdpVilWkqdj-20" target="WROsCdbGqWdpVilWkqdj-19">
          <mxGeometry relative="1" as="geometry">
            <mxPoint x="-710" y="615" as="sourcePoint" />
            <mxPoint x="-550" y="615" as="targetPoint" />
          </mxGeometry>
        </mxCell>
        <mxCell id="WROsCdbGqWdpVilWkqdj-30" value="phone_number" style="ellipse;whiteSpace=wrap;html=1;align=center;" vertex="1" parent="1">
          <mxGeometry x="-470" y="595" width="100" height="40" as="geometry" />
        </mxCell>
        <mxCell id="WROsCdbGqWdpVilWkqdj-31" value="" style="endArrow=none;html=1;rounded=0;entryX=0.5;entryY=1;entryDx=0;entryDy=0;exitX=0.5;exitY=0;exitDx=0;exitDy=0;" edge="1" parent="1" target="WROsCdbGqWdpVilWkqdj-30" source="WROsCdbGqWdpVilWkqdj-19">
          <mxGeometry relative="1" as="geometry">
            <mxPoint x="-270" y="675" as="sourcePoint" />
            <mxPoint x="-470" y="665" as="targetPoint" />
          </mxGeometry>
        </mxCell>
        <mxCell id="WROsCdbGqWdpVilWkqdj-32" value="Pharmacy" style="whiteSpace=wrap;html=1;align=center;" vertex="1" parent="1">
          <mxGeometry x="-160" y="655" width="100" height="40" as="geometry" />
        </mxCell>
        <mxCell id="WROsCdbGqWdpVilWkqdj-33" value="name" style="ellipse;whiteSpace=wrap;html=1;align=center;fontStyle=4;" vertex="1" parent="1">
          <mxGeometry x="-220" y="595" width="100" height="40" as="geometry" />
        </mxCell>
        <mxCell id="WROsCdbGqWdpVilWkqdj-34" value="" style="endArrow=none;html=1;rounded=0;exitX=0.5;exitY=1;exitDx=0;exitDy=0;entryX=0.5;entryY=0;entryDx=0;entryDy=0;" edge="1" parent="1" source="WROsCdbGqWdpVilWkqdj-33" target="WROsCdbGqWdpVilWkqdj-32">
          <mxGeometry relative="1" as="geometry">
            <mxPoint x="-340" y="615" as="sourcePoint" />
            <mxPoint x="-180" y="615" as="targetPoint" />
          </mxGeometry>
        </mxCell>
        <mxCell id="WROsCdbGqWdpVilWkqdj-35" value="phone_number" style="ellipse;whiteSpace=wrap;html=1;align=center;" vertex="1" parent="1">
          <mxGeometry x="-100" y="595" width="100" height="40" as="geometry" />
        </mxCell>
        <mxCell id="WROsCdbGqWdpVilWkqdj-36" value="" style="endArrow=none;html=1;rounded=0;entryX=0.5;entryY=1;entryDx=0;entryDy=0;exitX=0.5;exitY=0;exitDx=0;exitDy=0;" edge="1" parent="1" source="WROsCdbGqWdpVilWkqdj-32" target="WROsCdbGqWdpVilWkqdj-35">
          <mxGeometry relative="1" as="geometry">
            <mxPoint x="100" y="675" as="sourcePoint" />
            <mxPoint x="-100" y="665" as="targetPoint" />
          </mxGeometry>
        </mxCell>
        <mxCell id="WROsCdbGqWdpVilWkqdj-37" value="address" style="ellipse;whiteSpace=wrap;html=1;align=center;" vertex="1" parent="1">
          <mxGeometry x="-160" y="715" width="100" height="40" as="geometry" />
        </mxCell>
        <mxCell id="WROsCdbGqWdpVilWkqdj-38" value="" style="endArrow=none;html=1;rounded=0;exitX=0.5;exitY=0;exitDx=0;exitDy=0;entryX=0.5;entryY=1;entryDx=0;entryDy=0;" edge="1" parent="1" source="WROsCdbGqWdpVilWkqdj-37" target="WROsCdbGqWdpVilWkqdj-32">
          <mxGeometry relative="1" as="geometry">
            <mxPoint x="-10" y="735" as="sourcePoint" />
            <mxPoint x="150" y="735" as="targetPoint" />
          </mxGeometry>
        </mxCell>
        <mxCell id="WROsCdbGqWdpVilWkqdj-39" value="Primary_Physician" style="shape=rhombus;perimeter=rhombusPerimeter;whiteSpace=wrap;html=1;align=center;" vertex="1" parent="1">
          <mxGeometry x="220" y="295" width="120" height="60" as="geometry" />
        </mxCell>
        <mxCell id="WROsCdbGqWdpVilWkqdj-40" value="" style="endArrow=classic;html=1;rounded=0;exitX=1;exitY=0.5;exitDx=0;exitDy=0;entryX=0;entryY=0.5;entryDx=0;entryDy=0;endFill=1;strokeWidth=2;" edge="1" parent="1" source="WROsCdbGqWdpVilWkqdj-1" target="WROsCdbGqWdpVilWkqdj-39">
          <mxGeometry relative="1" as="geometry">
            <mxPoint x="200" y="485" as="sourcePoint" />
            <mxPoint x="360" y="485" as="targetPoint" />
          </mxGeometry>
        </mxCell>
        <mxCell id="WROsCdbGqWdpVilWkqdj-41" value="" style="endArrow=none;html=1;rounded=0;exitX=1;exitY=0.5;exitDx=0;exitDy=0;entryX=0;entryY=0.5;entryDx=0;entryDy=0;strokeWidth=1;" edge="1" parent="1" source="WROsCdbGqWdpVilWkqdj-39" target="WROsCdbGqWdpVilWkqdj-10">
          <mxGeometry relative="1" as="geometry">
            <mxPoint x="350" y="545" as="sourcePoint" />
            <mxPoint x="510" y="545" as="targetPoint" />
          </mxGeometry>
        </mxCell>
        <mxCell id="WROsCdbGqWdpVilWkqdj-42" value="Drug" style="whiteSpace=wrap;html=1;align=center;" vertex="1" parent="1">
          <mxGeometry x="230" y="655" width="100" height="40" as="geometry" />
        </mxCell>
        <mxCell id="WROsCdbGqWdpVilWkqdj-49" value="Sells" style="shape=rhombus;perimeter=rhombusPerimeter;whiteSpace=wrap;html=1;align=center;" vertex="1" parent="1">
          <mxGeometry x="30" y="645" width="120" height="60" as="geometry" />
        </mxCell>
        <mxCell id="WROsCdbGqWdpVilWkqdj-50" value="" style="endArrow=none;html=1;rounded=0;exitX=1;exitY=0.5;exitDx=0;exitDy=0;entryX=0;entryY=0.5;entryDx=0;entryDy=0;strokeWidth=2;" edge="1" parent="1" source="WROsCdbGqWdpVilWkqdj-49" target="WROsCdbGqWdpVilWkqdj-42">
          <mxGeometry relative="1" as="geometry">
            <mxPoint x="150" y="865" as="sourcePoint" />
            <mxPoint x="310" y="865" as="targetPoint" />
          </mxGeometry>
        </mxCell>
        <mxCell id="WROsCdbGqWdpVilWkqdj-51" value="" style="endArrow=none;html=1;rounded=0;exitX=1;exitY=0.5;exitDx=0;exitDy=0;entryX=0;entryY=0.5;entryDx=0;entryDy=0;strokeWidth=1;" edge="1" parent="1" source="WROsCdbGqWdpVilWkqdj-32" target="WROsCdbGqWdpVilWkqdj-49">
          <mxGeometry relative="1" as="geometry">
            <mxPoint x="160" y="685" as="sourcePoint" />
            <mxPoint x="250" y="685" as="targetPoint" />
          </mxGeometry>
        </mxCell>
        <mxCell id="WROsCdbGqWdpVilWkqdj-52" value="price" style="ellipse;whiteSpace=wrap;html=1;align=center;" vertex="1" parent="1">
          <mxGeometry x="40" y="595" width="100" height="40" as="geometry" />
        </mxCell>
        <mxCell id="WROsCdbGqWdpVilWkqdj-53" value="" style="endArrow=none;html=1;rounded=0;exitX=0.5;exitY=0;exitDx=0;exitDy=0;entryX=0.5;entryY=1;entryDx=0;entryDy=0;" edge="1" parent="1" source="WROsCdbGqWdpVilWkqdj-49" target="WROsCdbGqWdpVilWkqdj-52">
          <mxGeometry relative="1" as="geometry">
            <mxPoint x="-100" y="725" as="sourcePoint" />
            <mxPoint x="90" y="625" as="targetPoint" />
          </mxGeometry>
        </mxCell>
        <mxCell id="WROsCdbGqWdpVilWkqdj-71" value="name" style="ellipse;whiteSpace=wrap;html=1;align=center;fontStyle=4;" vertex="1" parent="1">
          <mxGeometry x="230" y="715" width="100" height="40" as="geometry" />
        </mxCell>
        <mxCell id="WROsCdbGqWdpVilWkqdj-78" value="" style="endArrow=none;html=1;rounded=0;exitX=0.5;exitY=0;exitDx=0;exitDy=0;entryX=0.5;entryY=1;entryDx=0;entryDy=0;" edge="1" parent="1" source="WROsCdbGqWdpVilWkqdj-71" target="WROsCdbGqWdpVilWkqdj-42">
          <mxGeometry relative="1" as="geometry">
            <mxPoint x="290" y="565" as="sourcePoint" />
            <mxPoint x="290" y="545" as="targetPoint" />
          </mxGeometry>
        </mxCell>
        <mxCell id="WROsCdbGqWdpVilWkqdj-79" value="Prescribe" style="shape=rhombus;perimeter=rhombusPerimeter;whiteSpace=wrap;html=1;align=center;" vertex="1" parent="1">
          <mxGeometry x="220" y="395" width="120" height="60" as="geometry" />
        </mxCell>
        <mxCell id="WROsCdbGqWdpVilWkqdj-87" value="Prescription" style="whiteSpace=wrap;html=1;align=center;" vertex="1" parent="1">
          <mxGeometry x="230" y="495" width="100" height="40" as="geometry" />
        </mxCell>
        <mxCell id="WROsCdbGqWdpVilWkqdj-88" value="id" style="ellipse;whiteSpace=wrap;html=1;align=center;fontStyle=4;" vertex="1" parent="1">
          <mxGeometry x="360" y="495" width="100" height="40" as="geometry" />
        </mxCell>
        <mxCell id="WROsCdbGqWdpVilWkqdj-89" value="" style="endArrow=none;html=1;rounded=0;exitX=1;exitY=0.5;exitDx=0;exitDy=0;entryX=0;entryY=0.5;entryDx=0;entryDy=0;" edge="1" parent="1" source="WROsCdbGqWdpVilWkqdj-87" target="WROsCdbGqWdpVilWkqdj-88">
          <mxGeometry relative="1" as="geometry">
            <mxPoint x="-140" y="495" as="sourcePoint" />
            <mxPoint x="20" y="495" as="targetPoint" />
          </mxGeometry>
        </mxCell>
        <mxCell id="WROsCdbGqWdpVilWkqdj-90" value="" style="endArrow=none;html=1;rounded=0;exitX=0.5;exitY=1;exitDx=0;exitDy=0;entryX=0.5;entryY=0;entryDx=0;entryDy=0;startArrow=classic;startFill=1;strokeWidth=2;" edge="1" parent="1" source="WROsCdbGqWdpVilWkqdj-79" target="WROsCdbGqWdpVilWkqdj-87">
          <mxGeometry relative="1" as="geometry">
            <mxPoint x="-20" y="495" as="sourcePoint" />
            <mxPoint x="140" y="495" as="targetPoint" />
          </mxGeometry>
        </mxCell>
        <mxCell id="WROsCdbGqWdpVilWkqdj-91" value="" style="endArrow=none;html=1;rounded=0;exitX=1;exitY=0.5;exitDx=0;exitDy=0;entryX=0;entryY=0.5;entryDx=0;entryDy=0;" edge="1" parent="1" source="WROsCdbGqWdpVilWkqdj-1" target="WROsCdbGqWdpVilWkqdj-79">
          <mxGeometry relative="1" as="geometry">
            <mxPoint x="170" y="465" as="sourcePoint" />
            <mxPoint x="330" y="465" as="targetPoint" />
          </mxGeometry>
        </mxCell>
        <mxCell id="WROsCdbGqWdpVilWkqdj-93" value="" style="endArrow=none;html=1;rounded=0;exitX=1;exitY=0.5;exitDx=0;exitDy=0;entryX=0;entryY=0.5;entryDx=0;entryDy=0;" edge="1" parent="1" source="WROsCdbGqWdpVilWkqdj-79" target="WROsCdbGqWdpVilWkqdj-10">
          <mxGeometry relative="1" as="geometry">
            <mxPoint x="470" y="485" as="sourcePoint" />
            <mxPoint x="630" y="485" as="targetPoint" />
          </mxGeometry>
        </mxCell>
        <mxCell id="WROsCdbGqWdpVilWkqdj-94" value="Contains" style="shape=rhombus;perimeter=rhombusPerimeter;whiteSpace=wrap;html=1;align=center;" vertex="1" parent="1">
          <mxGeometry x="220" y="565" width="120" height="60" as="geometry" />
        </mxCell>
        <mxCell id="WROsCdbGqWdpVilWkqdj-95" value="" style="endArrow=none;html=1;rounded=0;exitX=0.5;exitY=1;exitDx=0;exitDy=0;entryX=0.5;entryY=0;entryDx=0;entryDy=0;strokeWidth=2;" edge="1" parent="1" source="WROsCdbGqWdpVilWkqdj-87" target="WROsCdbGqWdpVilWkqdj-94">
          <mxGeometry relative="1" as="geometry">
            <mxPoint x="-250" y="535" as="sourcePoint" />
            <mxPoint x="-90" y="535" as="targetPoint" />
          </mxGeometry>
        </mxCell>
        <mxCell id="WROsCdbGqWdpVilWkqdj-96" value="" style="endArrow=none;html=1;rounded=0;exitX=0.5;exitY=0;exitDx=0;exitDy=0;entryX=0.5;entryY=1;entryDx=0;entryDy=0;" edge="1" parent="1" source="WROsCdbGqWdpVilWkqdj-42" target="WROsCdbGqWdpVilWkqdj-94">
          <mxGeometry relative="1" as="geometry">
            <mxPoint x="370" y="675" as="sourcePoint" />
            <mxPoint x="530" y="675" as="targetPoint" />
          </mxGeometry>
        </mxCell>
        <mxCell id="WROsCdbGqWdpVilWkqdj-98" value="quantity" style="ellipse;whiteSpace=wrap;html=1;align=center;" vertex="1" parent="1">
          <mxGeometry x="360" y="575" width="100" height="40" as="geometry" />
        </mxCell>
        <mxCell id="WROsCdbGqWdpVilWkqdj-99" value="" style="endArrow=none;html=1;rounded=0;exitX=1;exitY=0.5;exitDx=0;exitDy=0;entryX=0;entryY=0.5;entryDx=0;entryDy=0;" edge="1" parent="1" source="WROsCdbGqWdpVilWkqdj-94" target="WROsCdbGqWdpVilWkqdj-98">
          <mxGeometry relative="1" as="geometry">
            <mxPoint x="470" y="725" as="sourcePoint" />
            <mxPoint x="630" y="725" as="targetPoint" />
          </mxGeometry>
        </mxCell>
        <mxCell id="WROsCdbGqWdpVilWkqdj-100" value="date" style="ellipse;whiteSpace=wrap;html=1;align=center;" vertex="1" parent="1">
          <mxGeometry x="100" y="495" width="100" height="40" as="geometry" />
        </mxCell>
        <mxCell id="WROsCdbGqWdpVilWkqdj-101" value="" style="endArrow=none;html=1;rounded=0;exitX=1;exitY=0.5;exitDx=0;exitDy=0;entryX=0;entryY=0.5;entryDx=0;entryDy=0;" edge="1" parent="1" source="WROsCdbGqWdpVilWkqdj-100" target="WROsCdbGqWdpVilWkqdj-87">
          <mxGeometry relative="1" as="geometry">
            <mxPoint x="-10" y="455" as="sourcePoint" />
            <mxPoint x="150" y="455" as="targetPoint" />
          </mxGeometry>
        </mxCell>
        <mxCell id="WROsCdbGqWdpVilWkqdj-103" value="Duration" style="whiteSpace=wrap;html=1;align=center;" vertex="1" parent="1">
          <mxGeometry x="-340" y="745" width="100" height="40" as="geometry" />
        </mxCell>
        <mxCell id="WROsCdbGqWdpVilWkqdj-106" value="" style="endArrow=none;html=1;rounded=0;exitX=0.5;exitY=0;exitDx=0;exitDy=0;entryX=0.5;entryY=1;entryDx=0;entryDy=0;" edge="1" parent="1" source="WROsCdbGqWdpVilWkqdj-123" target="WROsCdbGqWdpVilWkqdj-103">
          <mxGeometry relative="1" as="geometry">
            <mxPoint x="-350" y="814.9999999999998" as="sourcePoint" />
            <mxPoint x="-340" y="775" as="targetPoint" />
          </mxGeometry>
        </mxCell>
        <mxCell id="WROsCdbGqWdpVilWkqdj-107" value="" style="endArrow=none;html=1;rounded=0;exitX=0.5;exitY=1;exitDx=0;exitDy=0;entryX=0.5;entryY=0;entryDx=0;entryDy=0;" edge="1" parent="1" source="WROsCdbGqWdpVilWkqdj-103" target="WROsCdbGqWdpVilWkqdj-124">
          <mxGeometry relative="1" as="geometry">
            <mxPoint x="-530" y="765" as="sourcePoint" />
            <mxPoint x="-230" y="814.9999999999998" as="targetPoint" />
          </mxGeometry>
        </mxCell>
        <mxCell id="WROsCdbGqWdpVilWkqdj-108" value="" style="endArrow=none;html=1;rounded=0;exitX=0.5;exitY=1;exitDx=0;exitDy=0;entryX=0.5;entryY=0;entryDx=0;entryDy=0;strokeWidth=2;" edge="1" parent="1" source="WROsCdbGqWdpVilWkqdj-113" target="WROsCdbGqWdpVilWkqdj-103">
          <mxGeometry relative="1" as="geometry">
            <mxPoint x="-290" y="705" as="sourcePoint" />
            <mxPoint x="-360" y="725" as="targetPoint" />
          </mxGeometry>
        </mxCell>
        <mxCell id="WROsCdbGqWdpVilWkqdj-109" value="" style="endArrow=none;html=1;rounded=0;exitX=1;exitY=0.5;exitDx=0;exitDy=0;entryX=0;entryY=0.5;entryDx=0;entryDy=0;" edge="1" parent="1" source="WROsCdbGqWdpVilWkqdj-19" target="WROsCdbGqWdpVilWkqdj-113">
          <mxGeometry relative="1" as="geometry">
            <mxPoint x="-480" y="755" as="sourcePoint" />
            <mxPoint x="-350" y="675" as="targetPoint" />
          </mxGeometry>
        </mxCell>
        <mxCell id="WROsCdbGqWdpVilWkqdj-110" value="" style="endArrow=none;html=1;rounded=0;exitX=1;exitY=0.5;exitDx=0;exitDy=0;entryX=0;entryY=0.5;entryDx=0;entryDy=0;" edge="1" parent="1" source="WROsCdbGqWdpVilWkqdj-113" target="WROsCdbGqWdpVilWkqdj-32">
          <mxGeometry relative="1" as="geometry">
            <mxPoint x="-230" y="675" as="sourcePoint" />
            <mxPoint x="-470" y="725" as="targetPoint" />
          </mxGeometry>
        </mxCell>
        <mxCell id="WROsCdbGqWdpVilWkqdj-111" value="text" style="ellipse;whiteSpace=wrap;html=1;align=center;" vertex="1" parent="1">
          <mxGeometry x="-490" y="725" width="100" height="40" as="geometry" />
        </mxCell>
        <mxCell id="WROsCdbGqWdpVilWkqdj-112" value="" style="endArrow=none;html=1;rounded=0;exitX=1;exitY=0;exitDx=0;exitDy=0;entryX=0;entryY=1;entryDx=0;entryDy=0;" edge="1" parent="1" source="WROsCdbGqWdpVilWkqdj-111" target="WROsCdbGqWdpVilWkqdj-113">
          <mxGeometry relative="1" as="geometry">
            <mxPoint x="-580" y="815" as="sourcePoint" />
            <mxPoint x="-320" y="690" as="targetPoint" />
          </mxGeometry>
        </mxCell>
        <mxCell id="WROsCdbGqWdpVilWkqdj-113" value="Contract" style="shape=associativeEntity;whiteSpace=wrap;html=1;align=center;" vertex="1" parent="1">
          <mxGeometry x="-360" y="645" width="140" height="60" as="geometry" />
        </mxCell>
        <mxCell id="WROsCdbGqWdpVilWkqdj-114" value="Supervises" style="shape=rhombus;perimeter=rhombusPerimeter;whiteSpace=wrap;html=1;align=center;" vertex="1" parent="1">
          <mxGeometry x="-350" y="545" width="120" height="60" as="geometry" />
        </mxCell>
        <mxCell id="WROsCdbGqWdpVilWkqdj-115" value="" style="endArrow=none;html=1;rounded=0;exitX=0.5;exitY=1;exitDx=0;exitDy=0;entryX=0.5;entryY=0;entryDx=0;entryDy=0;startArrow=classic;startFill=1;strokeWidth=2;" edge="1" parent="1" source="WROsCdbGqWdpVilWkqdj-114" target="WROsCdbGqWdpVilWkqdj-113">
          <mxGeometry relative="1" as="geometry">
            <mxPoint x="-380" y="455" as="sourcePoint" />
            <mxPoint x="-220" y="455" as="targetPoint" />
          </mxGeometry>
        </mxCell>
        <mxCell id="WROsCdbGqWdpVilWkqdj-116" value="Supervisor" style="whiteSpace=wrap;html=1;align=center;" vertex="1" parent="1">
          <mxGeometry x="-340" y="475" width="100" height="40" as="geometry" />
        </mxCell>
        <mxCell id="WROsCdbGqWdpVilWkqdj-117" value="" style="endArrow=none;html=1;rounded=0;entryX=0.5;entryY=1;entryDx=0;entryDy=0;exitX=0.5;exitY=0;exitDx=0;exitDy=0;" edge="1" parent="1" source="WROsCdbGqWdpVilWkqdj-114" target="WROsCdbGqWdpVilWkqdj-116">
          <mxGeometry relative="1" as="geometry">
            <mxPoint x="-290" y="535" as="sourcePoint" />
            <mxPoint x="-430" y="455" as="targetPoint" />
          </mxGeometry>
        </mxCell>
        <mxCell id="WROsCdbGqWdpVilWkqdj-119" value="ssn" style="ellipse;whiteSpace=wrap;html=1;align=center;fontStyle=4;" vertex="1" parent="1">
          <mxGeometry x="-400" y="415" width="100" height="40" as="geometry" />
        </mxCell>
        <mxCell id="WROsCdbGqWdpVilWkqdj-120" value="name" style="ellipse;whiteSpace=wrap;html=1;align=center;" vertex="1" parent="1">
          <mxGeometry x="-280" y="415" width="100" height="40" as="geometry" />
        </mxCell>
        <mxCell id="WROsCdbGqWdpVilWkqdj-121" value="" style="endArrow=none;html=1;rounded=0;exitX=0.5;exitY=1;exitDx=0;exitDy=0;entryX=0.5;entryY=0;entryDx=0;entryDy=0;" edge="1" parent="1" source="WROsCdbGqWdpVilWkqdj-119" target="WROsCdbGqWdpVilWkqdj-116">
          <mxGeometry relative="1" as="geometry">
            <mxPoint x="-550" y="485" as="sourcePoint" />
            <mxPoint x="-390" y="485" as="targetPoint" />
          </mxGeometry>
        </mxCell>
        <mxCell id="WROsCdbGqWdpVilWkqdj-122" value="" style="endArrow=none;html=1;rounded=0;exitX=0.5;exitY=0;exitDx=0;exitDy=0;entryX=0.5;entryY=1;entryDx=0;entryDy=0;" edge="1" parent="1" source="WROsCdbGqWdpVilWkqdj-116" target="WROsCdbGqWdpVilWkqdj-120">
          <mxGeometry relative="1" as="geometry">
            <mxPoint x="-130" y="505" as="sourcePoint" />
            <mxPoint x="30" y="505" as="targetPoint" />
          </mxGeometry>
        </mxCell>
        <mxCell id="WROsCdbGqWdpVilWkqdj-123" value="&lt;div&gt;start_date&lt;/div&gt;" style="ellipse;whiteSpace=wrap;html=1;align=center;fontStyle=4;" vertex="1" parent="1">
          <mxGeometry x="-400" y="810" width="100" height="40" as="geometry" />
        </mxCell>
        <mxCell id="WROsCdbGqWdpVilWkqdj-124" value="end_date" style="ellipse;whiteSpace=wrap;html=1;align=center;fontStyle=4;" vertex="1" parent="1">
          <mxGeometry x="-280" y="810" width="100" height="40" as="geometry" />
        </mxCell>
      </root>
    </mxGraphModel>
  </diagram>
</mxfile>
